<?xml version="1.0" encoding="UTF-8"?> <svg xmlns="http://www.w3.org/2000/svg" width="150" height="65" viewBox="0 0 409 95" fill="none"> <path fill-rule="evenodd" clip-rule="evenodd" d="M337.286 54.0352H314.307C310.914 54.0352 310.914 58.6577 314.307 58.6577C317.391 58.6577 320.322 58.6577 323.252 58.6577C323.406 58.6577 323.715 58.6577 323.869 58.6577H329.575C333.431 58.6577 337.903 61.8456 337.903 66.1493V67.4245C337.903 71.7282 333.431 74.9161 329.575 74.9161H328.341H323.252H322.635H304.591V69.0185H328.341C331.888 69.0185 331.734 64.396 328.341 64.396C325.257 64.396 322.327 64.396 319.396 64.396C319.242 64.396 318.934 64.396 318.779 64.396H313.073C309.218 64.396 304.745 61.2081 304.745 56.9044V55.6292C304.745 51.3255 309.218 48.1376 313.073 48.1376H319.55H337.44V54.0352H337.286ZM251.692 58.4983H267.115C270.508 58.4983 270.508 53.8758 267.115 53.8758H262.951H257.09H252.926C251.538 53.8758 250.458 54.8322 250.15 56.1074V58.4983C250.767 58.6577 251.23 58.4983 251.692 58.4983ZM276.831 69.0185H253.08C249.687 69.0185 249.687 64.396 253.08 64.396C256.165 64.396 259.095 64.396 262.025 64.396C262.179 64.396 262.488 64.396 262.642 64.396H268.348C272.204 64.396 276.676 61.2081 276.676 56.9044V55.6292C276.676 51.3255 272.204 48.1376 268.348 48.1376H262.951H261.871H256.936H251.538C247.682 48.1376 243.21 51.3255 243.21 55.6292V56.2668V66.1493V67.4245C243.21 71.7282 247.682 74.9161 251.538 74.9161H276.676V69.0185H276.831ZM373.066 70.453V73.3222V74.7567H370.136H363.658C359.803 74.7567 355.33 71.5688 355.33 67.2651V59.4547V55.6292V38.8926C355.33 35.2265 358.106 32.3574 361.653 32.3574H362.425V48.297C362.887 48.297 363.35 48.1376 363.658 48.1376H370.136H371.061V54.0352H366.743H362.425V58.4983V61.0487V64.5554C362.425 66.9463 364.429 69.0185 366.743 69.0185H373.066V70.453ZM243.518 48.1376C240.434 48.1376 236.116 47.6594 233.802 51.4849L223.315 67.9027L212.828 51.4849C210.669 47.6594 206.351 48.1376 203.112 48.1376L217.301 70.7718C218.689 73.0034 220.385 74.5973 222.39 74.9161C224.857 75.2349 227.171 73.8003 229.021 70.7718C233.648 63.7584 238.738 55.7886 243.518 48.1376ZM151.447 53.8758C151.447 50.5285 153.606 48.1376 156.845 48.1376H161.472C161.934 48.1376 162.397 48.297 163.322 49.094L182.6 68.5403V52.6007C182.6 49.2534 184.759 47.9782 187.998 47.9782H192.625C190.928 48.1376 189.695 48.6158 189.695 53.2383V70.6124C189.695 72.2064 188.461 74.5973 186.919 74.5973H182.138H180.595C179.053 74.5973 177.819 73.1628 176.74 72.047L158.696 53.557C158.696 53.7164 158.696 53.8758 158.696 54.1946V74.5973H151.601V53.8758H151.447ZM282.383 53.8758C282.383 50.5285 285.467 48.1376 288.706 48.1376H289.477H299.964H302.123V54.0352H299.964H293.641C291.328 54.0352 289.323 56.1074 289.323 58.4983V74.9161H282.228V53.8758H282.383ZM409 95H408.229C404.682 95 401.906 92.1309 401.906 88.4648V74.5973C401.443 74.5973 400.98 74.7567 400.672 74.7567H389.414H383.707C379.852 74.7567 375.379 71.5688 375.379 67.2651V55.6292C375.379 51.8037 378.926 48.9346 382.319 48.297V56.9044V62.802V66.1493C382.319 67.7433 383.553 68.8591 385.095 68.8591H399.438C400.672 68.8591 401.906 67.9027 402.06 66.6275C402.06 66.4681 402.06 66.1493 402.06 65.9899V62.6426V59.2953V55.4698C402.06 51.6443 405.607 48.7752 409 48.1376V56.745V66.3087V67.2651V95ZM343.147 53.8758C343.147 50.5285 346.231 48.1376 349.47 48.1376H350.241V74.7567H343.147V53.8758ZM119.523 48.297C115.976 48.9346 112.583 51.9631 112.583 55.6292V67.2651C112.583 71.5688 117.055 74.7567 120.911 74.7567H129.548H132.324H138.03C141.885 74.7567 146.358 71.5688 146.358 67.2651V56.745V48.1376C142.811 48.7752 139.418 51.8037 139.418 55.4698C139.418 58.9765 139.418 62.4832 139.418 65.9899C139.418 67.5839 138.184 68.8591 136.642 68.8591H129.548H122.453C120.911 68.8591 119.677 67.5839 119.677 65.9899V63.9178V56.745V48.297H119.523ZM194.938 53.8758C194.938 50.5285 198.023 48.1376 201.261 48.1376H202.032V74.7567H194.938V53.8758ZM0 21.5185C0 18.1711 3.08446 15.7802 6.32315 15.7802H7.09427V42.3993H0V21.5185ZM74.644 20.4027C74.644 17.0554 76.8032 15.7802 80.0419 15.7802H84.6685C82.8179 15.9396 81.7383 16.4178 81.7383 21.0403V38.4144C81.7383 40.0084 80.5045 42.3993 78.9623 42.3993H72.4849C70.9427 42.3993 69.7089 40.9648 68.6293 39.849L50.5852 21.5185V38.5738C50.5852 40.1678 49.3514 42.5587 47.8092 42.5587H41.3318C39.7896 42.5587 38.5558 41.1242 37.4762 40.0084L19.4321 21.5185C19.4321 21.6779 19.4321 21.8372 19.4321 22.156V42.5587H12.1836V21.5185C12.1836 18.1711 14.3428 15.7802 17.5814 15.7802H22.2081C22.6708 15.7802 23.1335 15.9396 24.0588 16.7366L43.3367 36.1829V20.2433C43.3367 16.896 45.4958 15.6208 48.7345 15.6208H53.3612C53.8239 15.6208 54.2866 15.7802 55.2119 16.5772L74.4898 36.0235V20.4027H74.644ZM276.06 21.6779H253.08C249.687 21.6779 249.687 26.3003 253.08 26.3003C256.165 26.3003 259.095 26.3003 262.025 26.3003C262.179 26.3003 262.488 26.3003 262.642 26.3003H268.348C272.204 26.3003 276.676 29.4883 276.676 33.792V35.0671C276.676 39.3708 272.204 42.5587 268.348 42.5587H267.115H262.025H261.408H243.364V36.6611H267.115C270.662 36.6611 270.508 32.0386 267.115 32.0386C264.03 32.0386 261.1 32.0386 258.17 32.0386C258.015 32.0386 257.707 32.0386 257.553 32.0386H251.847C247.991 32.0386 243.518 28.8507 243.518 24.547V23.2718C243.518 18.9681 247.991 15.7802 251.847 15.7802H258.324H276.06V21.6779ZM230.409 21.5185C230.409 18.1711 233.494 15.7802 236.733 15.7802H237.504V42.3993H230.409V21.5185ZM210.977 0V32.198C210.977 34.5889 212.982 36.6611 215.296 36.6611H224.703V38.0956V40.9648V42.3993H218.689H212.211C208.356 42.3993 203.883 39.2114 203.883 34.9077V6.53524C203.883 2.86913 206.659 0 210.206 0H210.977ZM112.429 42.3993H110.115H106.568H103.792H103.638H95.31C91.4544 42.3993 86.9819 39.2114 86.9819 34.9077V23.2718C86.9819 18.9681 91.4544 15.7802 95.31 15.7802H97.1606H99.7824H101.787H105.334H112.275C116.13 15.7802 120.603 18.9681 120.603 23.2718V34.9077C120.911 39.2114 116.284 42.3993 112.429 42.3993ZM113.817 33.792V24.547C113.817 22.953 112.583 21.6779 111.041 21.6779H96.698C95.4642 21.6779 94.2304 22.6342 93.9219 24.0688C93.9219 24.2282 93.9219 25.344 93.9219 25.5034V33.792C93.9219 35.3859 95.1557 36.6611 96.698 36.6611H103.792H110.886C112.583 36.6611 113.817 35.3859 113.817 33.792ZM151.293 42.3993H145.587H145.432H145.278H145.124H144.97H144.816H144.661H144.507H144.353H144.199H144.044H143.89H143.736H143.582H143.428H143.273H143.119H134.02C133.557 42.3993 133.095 42.3993 132.786 42.2399V56.1074C132.786 59.7735 130.01 62.6426 126.463 62.6426H125.692V23.2718C125.692 18.9681 130.164 15.7802 134.02 15.7802H135.1H140.343H141.885H151.447C155.303 15.7802 159.775 18.9681 159.775 23.2718V34.9077C159.775 39.2114 155.149 42.3993 151.293 42.3993ZM152.835 33.9513V32.995V24.547C152.835 22.953 151.601 21.6779 150.213 21.6779H150.059H135.716C134.174 21.6779 132.94 22.953 132.94 24.547V33.792C132.94 35.3859 134.174 36.6611 135.716 36.6611H150.059C151.447 36.6611 152.681 35.3859 152.835 33.9513ZM135.562 21.6779C135.408 21.6779 135.408 21.6779 135.254 21.6779C135.254 21.6779 135.408 21.6779 135.562 21.6779ZM135.1 21.6779C134.945 21.6779 134.791 21.6779 134.637 21.8372C134.945 21.8372 134.945 21.6779 135.1 21.6779ZM190.466 42.3993H188.152H184.605H181.983H181.829H173.501C169.646 42.3993 165.173 39.2114 165.173 34.9077V23.2718C165.173 18.9681 169.646 15.7802 173.501 15.7802H175.198H177.819H179.824H183.371H190.311C194.167 15.7802 198.64 18.9681 198.64 23.2718V34.9077C198.794 39.2114 194.321 42.3993 190.466 42.3993ZM191.854 33.792V24.547C191.854 22.953 190.62 21.6779 189.078 21.6779H174.735C173.501 21.6779 172.267 22.6342 171.959 24.0688C171.959 24.2282 171.959 25.344 171.959 25.5034V33.792C171.959 35.3859 173.193 36.6611 174.735 36.6611H181.829H188.923C190.62 36.6611 191.854 35.3859 191.854 33.792Z" fill="#fff"></path> </svg> 